<?xml version="1.0" encoding="UTF-8"?>
<svg width="700pt" height="700pt" version="1.1" viewBox="0 0 700 700" xmlns="http://www.w3.org/2000/svg" xmlns:xlink="http://www.w3.org/1999/xlink">
 <defs>
  <symbol id="u" overflow="visible">
   <path d="m18.766-1.125c-0.96875 0.5-1.9805 0.875-3.0312 1.125-1.043 0.25781-2.1367 0.39062-3.2812 0.39062-3.3984 0-6.0898-0.94531-8.0781-2.8438-1.9922-1.9062-2.9844-4.4844-2.9844-7.7344 0-3.2578 0.99219-5.8359 2.9844-7.7344 1.9883-1.9062 4.6797-2.8594 8.0781-2.8594 1.1445 0 2.2383 0.13281 3.2812 0.39062 1.0508 0.25 2.0625 0.625 3.0312 1.125v4.2188c-0.98047-0.65625-1.9453-1.1406-2.8906-1.4531-0.94922-0.3125-1.9492-0.46875-3-0.46875-1.875 0-3.3516 0.60547-4.4219 1.8125-1.0742 1.1992-1.6094 2.8555-1.6094 4.9688 0 2.1055 0.53516 3.7617 1.6094 4.9688 1.0703 1.1992 2.5469 1.7969 4.4219 1.7969 1.0508 0 2.0508-0.14844 3-0.45312 0.94531-0.3125 1.9102-0.80078 2.8906-1.4688z"/>
  </symbol>
  <symbol id="c" overflow="visible">
   <path d="m13.734-11.141c-0.4375-0.19531-0.87109-0.34375-1.2969-0.4375-0.41797-0.10156-0.83984-0.15625-1.2656-0.15625-1.2617 0-2.2305 0.40625-2.9062 1.2188-0.67969 0.80469-1.0156 1.9531-1.0156 3.4531v7.0625h-4.8906v-15.312h4.8906v2.5156c0.625-1 1.3438-1.7266 2.1562-2.1875 0.82031-0.46875 1.8008-0.70312 2.9375-0.70312 0.16406 0 0.34375 0.011719 0.53125 0.03125 0.19531 0.011719 0.47656 0.039062 0.84375 0.078125z"/>
  </symbol>
  <symbol id="a" overflow="visible">
   <path d="m17.641-7.7031v1.4062h-11.453c0.125 1.1484 0.53906 2.0078 1.25 2.5781 0.70703 0.57422 1.7031 0.85938 2.9844 0.85938 1.0312 0 2.082-0.14844 3.1562-0.45312 1.082-0.3125 2.1914-0.77344 3.3281-1.3906v3.7656c-1.1562 0.4375-2.3125 0.76562-3.4688 0.98438-1.1562 0.22656-2.3125 0.34375-3.4688 0.34375-2.7734 0-4.9297-0.70312-6.4688-2.1094-1.5312-1.4062-2.2969-3.3789-2.2969-5.9219 0-2.5 0.75391-4.4609 2.2656-5.8906 1.5078-1.4375 3.582-2.1562 6.2188-2.1562 2.4062 0 4.332 0.73047 5.7812 2.1875 1.4453 1.4492 2.1719 3.3828 2.1719 5.7969zm-5.0312-1.625c0-0.92578-0.27344-1.6719-0.8125-2.2344-0.54297-0.57031-1.25-0.85938-2.125-0.85938-0.94922 0-1.7188 0.26562-2.3125 0.79688s-0.96484 1.2969-1.1094 2.2969z"/>
  </symbol>
  <symbol id="g" overflow="visible">
   <path d="m9.2188-6.8906c-1.0234 0-1.793 0.17188-2.3125 0.51562-0.51172 0.34375-0.76562 0.85547-0.76562 1.5312 0 0.625 0.20703 1.1172 0.625 1.4688 0.41406 0.34375 0.98828 0.51562 1.7188 0.51562 0.92578 0 1.7031-0.32812 2.3281-0.98438 0.63281-0.66406 0.95312-1.4922 0.95312-2.4844v-0.5625zm7.4688-1.8438v8.7344h-4.9219v-2.2656c-0.65625 0.92969-1.3984 1.6055-2.2188 2.0312-0.82422 0.41406-1.8242 0.625-3 0.625-1.5859 0-2.8711-0.45703-3.8594-1.375-0.99219-0.92578-1.4844-2.1289-1.4844-3.6094 0-1.7891 0.61328-3.1016 1.8438-3.9375 1.2383-0.84375 3.1797-1.2656 5.8281-1.2656h2.8906v-0.39062c0-0.76953-0.30859-1.332-0.92188-1.6875-0.61719-0.36328-1.5703-0.54688-2.8594-0.54688-1.0547 0-2.0312 0.10547-2.9375 0.3125-0.89844 0.21094-1.7305 0.52344-2.5 0.9375v-3.7344c1.0391-0.25 2.0859-0.44141 3.1406-0.57812 1.0625-0.13281 2.125-0.20312 3.1875-0.20312 2.7578 0 4.75 0.54688 5.9688 1.6406 1.2266 1.0859 1.8438 2.8555 1.8438 5.3125z"/>
  </symbol>
  <symbol id="b" overflow="visible">
   <path d="m7.7031-19.656v4.3438h5.0469v3.5h-5.0469v6.5c0 0.71094 0.14062 1.1875 0.42188 1.4375s0.83594 0.375 1.6719 0.375h2.5156v3.5h-4.1875c-1.9375 0-3.3125-0.39844-4.125-1.2031-0.80469-0.8125-1.2031-2.1797-1.2031-4.1094v-6.5h-2.4219v-3.5h2.4219v-4.3438z"/>
  </symbol>
  <symbol id="k" overflow="visible">
   <path d="m12.766-13.078v-8.2031h4.9219v21.281h-4.9219v-2.2188c-0.66797 0.90625-1.4062 1.5703-2.2188 1.9844s-1.7578 0.625-2.8281 0.625c-1.8867 0-3.4336-0.75-4.6406-2.25-1.2109-1.5-1.8125-3.4258-1.8125-5.7812 0-2.3633 0.60156-4.2969 1.8125-5.7969 1.207-1.5 2.7539-2.25 4.6406-2.25 1.0625 0 2 0.21484 2.8125 0.64062 0.82031 0.42969 1.5664 1.0859 2.2344 1.9688zm-3.2188 9.9219c1.0391 0 1.8359-0.37891 2.3906-1.1406 0.55078-0.76953 0.82812-1.8828 0.82812-3.3438 0-1.457-0.27734-2.5664-0.82812-3.3281-0.55469-0.76953-1.3516-1.1562-2.3906-1.1562-1.043 0-1.8398 0.38672-2.3906 1.1562-0.55469 0.76172-0.82812 1.8711-0.82812 3.3281 0 1.4609 0.27344 2.5742 0.82812 3.3438 0.55078 0.76172 1.3477 1.1406 2.3906 1.1406z"/>
  </symbol>
  <symbol id="j" overflow="visible">
   <path d="m10.5-3.1562c1.0508 0 1.8516-0.37891 2.4062-1.1406 0.55078-0.76953 0.82812-1.8828 0.82812-3.3438 0-1.457-0.27734-2.5664-0.82812-3.3281-0.55469-0.76953-1.3555-1.1562-2.4062-1.1562-1.0547 0-1.8594 0.38672-2.4219 1.1562-0.55469 0.77344-0.82812 1.8828-0.82812 3.3281 0 1.4492 0.27344 2.5586 0.82812 3.3281 0.5625 0.77344 1.3672 1.1562 2.4219 1.1562zm-3.25-9.9219c0.67578-0.88281 1.4219-1.5391 2.2344-1.9688 0.82031-0.42578 1.7656-0.64062 2.8281-0.64062 1.8945 0 3.4453 0.75 4.6562 2.25 1.207 1.5 1.8125 3.4336 1.8125 5.7969 0 2.3555-0.60547 4.2812-1.8125 5.7812-1.2109 1.5-2.7617 2.25-4.6562 2.25-1.0625 0-2.0078-0.21094-2.8281-0.625-0.8125-0.42578-1.5586-1.0859-2.2344-1.9844v2.2188h-4.8906v-21.281h4.8906z"/>
  </symbol>
  <symbol id="f" overflow="visible">
   <path d="m0.34375-15.312h4.8906l4.125 10.391 3.5-10.391h4.8906l-6.4375 16.766c-0.64844 1.6953-1.4023 2.8828-2.2656 3.5625-0.86719 0.6875-2 1.0312-3.4062 1.0312h-2.8438v-3.2188h1.5312c0.83203 0 1.4375-0.13672 1.8125-0.40625 0.38281-0.26172 0.67969-0.73047 0.89062-1.4062l0.14062-0.42188z"/>
  </symbol>
  <symbol id="i" overflow="visible">
   <path d="m14.953-3.7188h-8.2188l-1.3125 3.7188h-5.2812l7.5625-20.406h6.2656l7.5625 20.406h-5.2812zm-6.9062-3.7812h5.5781l-2.7812-8.125z"/>
  </symbol>
  <symbol id="h" overflow="visible">
   <path d="m2.3594-15.312h4.8906v15.312h-4.8906zm0-5.9688h4.8906v4h-4.8906z"/>
  </symbol>
  <symbol id="e" overflow="visible">
   <path d="m17.75-9.3281v9.3281h-4.9219v-7.1406c0-1.3203-0.03125-2.2344-0.09375-2.7344s-0.16797-0.86719-0.3125-1.1094c-0.1875-0.3125-0.44922-0.55469-0.78125-0.73438-0.32422-0.17578-0.69531-0.26562-1.1094-0.26562-1.0234 0-1.8242 0.39844-2.4062 1.1875-0.58594 0.78125-0.875 1.8711-0.875 3.2656v7.5312h-4.8906v-15.312h4.8906v2.2344c0.73828-0.88281 1.5195-1.5391 2.3438-1.9688 0.83203-0.42578 1.75-0.64062 2.75-0.64062 1.7695 0 3.1133 0.54688 4.0312 1.6406 0.91406 1.0859 1.375 2.6562 1.375 4.7188z"/>
  </symbol>
  <symbol id="d" overflow="visible">
   <path d="m9.6406-12.188c-1.0859 0-1.9141 0.39062-2.4844 1.1719-0.57422 0.78125-0.85938 1.9062-0.85938 3.375s0.28516 2.5938 0.85938 3.375c0.57031 0.77344 1.3984 1.1562 2.4844 1.1562 1.0625 0 1.875-0.38281 2.4375-1.1562 0.57031-0.78125 0.85938-1.9062 0.85938-3.375s-0.28906-2.5938-0.85938-3.375c-0.5625-0.78125-1.375-1.1719-2.4375-1.1719zm0-3.5c2.6328 0 4.6914 0.71484 6.1719 2.1406 1.4766 1.418 2.2188 3.3867 2.2188 5.9062 0 2.5117-0.74219 4.4805-2.2188 5.9062-1.4805 1.418-3.5391 2.125-6.1719 2.125-2.6484 0-4.7148-0.70703-6.2031-2.125-1.4922-1.4258-2.2344-3.3945-2.2344-5.9062 0-2.5195 0.74219-4.4883 2.2344-5.9062 1.4883-1.4258 3.5547-2.1406 6.2031-2.1406z"/>
  </symbol>
  <symbol id="t" overflow="visible">
   <path d="m7.8281-16.438v12.453h1.8906c2.1562 0 3.8008-0.53125 4.9375-1.5938 1.1328-1.0625 1.7031-2.6133 1.7031-4.6562 0-2.0195-0.57031-3.5547-1.7031-4.6094-1.125-1.0625-2.7734-1.5938-4.9375-1.5938zm-5.25-3.9688h5.5469c3.0938 0 5.3984 0.21875 6.9219 0.65625 1.5195 0.4375 2.8203 1.1875 3.9062 2.25 0.95703 0.91797 1.6641 1.9805 2.125 3.1875 0.46875 1.1992 0.70312 2.5586 0.70312 4.0781 0 1.543-0.23438 2.918-0.70312 4.125-0.46094 1.2109-1.168 2.2773-2.125 3.2031-1.0938 1.0547-2.4062 1.8047-3.9375 2.25-1.5312 0.4375-3.8281 0.65625-6.8906 0.65625h-5.5469z"/>
  </symbol>
  <symbol id="s" overflow="visible">
   <path d="m12.422-21.281v3.2188h-2.7031c-0.6875 0-1.1719 0.125-1.4531 0.375-0.27344 0.25-0.40625 0.6875-0.40625 1.3125v1.0625h4.1875v3.5h-4.1875v11.812h-4.8906v-11.812h-2.4375v-3.5h2.4375v-1.0625c0-1.6641 0.46094-2.8984 1.3906-3.7031 0.92578-0.80078 2.3672-1.2031 4.3281-1.2031z"/>
  </symbol>
  <symbol id="r" overflow="visible">
   <path d="m16.547-12.766c0.61328-0.94531 1.3477-1.6719 2.2031-2.1719 0.85156-0.5 1.7891-0.75 2.8125-0.75 1.7578 0 3.0977 0.54688 4.0156 1.6406 0.92578 1.0859 1.3906 2.6562 1.3906 4.7188v9.3281h-4.9219v-7.9844-0.35938c0.007813-0.13281 0.015625-0.32031 0.015625-0.5625 0-1.082-0.16406-1.8633-0.48438-2.3438-0.3125-0.48828-0.82422-0.73438-1.5312-0.73438-0.92969 0-1.6484 0.38672-2.1562 1.1562-0.51172 0.76172-0.77344 1.8672-0.78125 3.3125v7.5156h-4.9219v-7.9844c0-1.6953-0.14844-2.7852-0.4375-3.2656-0.29297-0.48828-0.8125-0.73438-1.5625-0.73438-0.9375 0-1.6641 0.38672-2.1719 1.1562-0.51172 0.76172-0.76562 1.8594-0.76562 3.2969v7.5312h-4.9219v-15.312h4.9219v2.2344c0.60156-0.86328 1.2891-1.5156 2.0625-1.9531 0.78125-0.4375 1.6406-0.65625 2.5781-0.65625 1.0625 0 2 0.25781 2.8125 0.76562 0.8125 0.51172 1.4258 1.2305 1.8438 2.1562z"/>
  </symbol>
  <symbol id="q" overflow="visible">
   <path d="m17.75-9.3281v9.3281h-4.9219v-7.1094c0-1.3438-0.03125-2.2656-0.09375-2.7656s-0.16797-0.86719-0.3125-1.1094c-0.1875-0.3125-0.44922-0.55469-0.78125-0.73438-0.32422-0.17578-0.69531-0.26562-1.1094-0.26562-1.0234 0-1.8242 0.39844-2.4062 1.1875-0.58594 0.78125-0.875 1.8711-0.875 3.2656v7.5312h-4.8906v-21.281h4.8906v8.2031c0.73828-0.88281 1.5195-1.5391 2.3438-1.9688 0.83203-0.42578 1.75-0.64062 2.75-0.64062 1.7695 0 3.1133 0.54688 4.0312 1.6406 0.91406 1.0859 1.375 2.6562 1.375 4.7188z"/>
  </symbol>
  <symbol id="p" overflow="visible">
   <path d="m2.5781-20.406h5.875l7.4219 14v-14h4.9844v20.406h-5.875l-7.4219-14v14h-4.9844z"/>
  </symbol>
  <symbol id="o" overflow="visible">
   <path d="m2.1875-5.9688v-9.3438h4.9219v1.5312c0 0.83594-0.007813 1.875-0.015625 3.125-0.011719 1.25-0.015625 2.0859-0.015625 2.5 0 1.2422 0.03125 2.1328 0.09375 2.6719 0.070313 0.54297 0.17969 0.93359 0.32812 1.1719 0.20703 0.32422 0.47266 0.57422 0.79688 0.75 0.32031 0.16797 0.69141 0.25 1.1094 0.25 1.0195 0 1.8203-0.39062 2.4062-1.1719 0.58203-0.78125 0.875-1.8672 0.875-3.2656v-7.5625h4.8906v15.312h-4.8906v-2.2188c-0.74219 0.89844-1.5234 1.5586-2.3438 1.9844-0.82422 0.41406-1.7344 0.625-2.7344 0.625-1.7617 0-3.1055-0.53906-4.0312-1.625-0.92969-1.082-1.3906-2.6602-1.3906-4.7344z"/>
  </symbol>
  <symbol id="n" overflow="visible">
   <path d="m2.5781-20.406h8.7344c2.5938 0 4.582 0.57812 5.9688 1.7344 1.3945 1.1484 2.0938 2.7891 2.0938 4.9219 0 2.1367-0.69922 3.7812-2.0938 4.9375-1.3867 1.1562-3.375 1.7344-5.9688 1.7344h-3.4844v7.0781h-5.25zm5.25 3.8125v5.7031h2.9219c1.0195 0 1.8047-0.25 2.3594-0.75 0.5625-0.5 0.84375-1.2031 0.84375-2.1094 0-0.91406-0.28125-1.6172-0.84375-2.1094-0.55469-0.48828-1.3398-0.73438-2.3594-0.73438z"/>
  </symbol>
  <symbol id="m" overflow="visible">
   <path d="m2.3594-15.312h4.8906v15.031c0 2.0508-0.49609 3.6172-1.4844 4.7031-0.98047 1.082-2.4062 1.625-4.2812 1.625h-2.4219v-3.2188h0.85938c0.92578 0 1.5625-0.21094 1.9062-0.625 0.35156-0.41797 0.53125-1.2461 0.53125-2.4844zm0-5.9688h4.8906v4h-4.8906z"/>
  </symbol>
  <symbol id="l" overflow="visible">
   <path d="m14.719-14.828v3.9844c-0.65625-0.45703-1.3242-0.79688-2-1.0156-0.66797-0.21875-1.3594-0.32812-2.0781-0.32812-1.3672 0-2.4336 0.40234-3.2031 1.2031-0.76172 0.79297-1.1406 1.9062-1.1406 3.3438 0 1.4297 0.37891 2.543 1.1406 3.3438 0.76953 0.79297 1.8359 1.1875 3.2031 1.1875 0.75781 0 1.4844-0.10938 2.1719-0.32812 0.6875-0.22656 1.3203-0.56641 1.9062-1.0156v4c-0.76172 0.28125-1.5391 0.48828-2.3281 0.625-0.78125 0.14453-1.5742 0.21875-2.375 0.21875-2.7617 0-4.9219-0.70703-6.4844-2.125-1.5547-1.4141-2.3281-3.3828-2.3281-5.9062 0-2.5312 0.77344-4.5039 2.3281-5.9219 1.5625-1.4141 3.7227-2.125 6.4844-2.125 0.80078 0 1.5938 0.074219 2.375 0.21875 0.78125 0.13672 1.5547 0.35156 2.3281 0.64062z"/>
  </symbol>
 </defs>
 <g>
  <path d="m567.16 187.19c0.44922-0.47656 0.85156-0.91406 1.1758-1.2812 5.7695-6.5977 9.9961-15.348 4.5547-20.121-1.3398-1.168-3.0391-1.7852-4.9219-1.7852-5.9102 0-12.047 6.2773-14.414 8.9766-0.24609 0.27734-0.46484 0.57813-0.69922 0.86719-1.5312-5-4.5352-11.078-10.215-11.078-0.30078 0-0.84375 0.042969-1.1445 0.09375-2.1289 0.35156-5.8555 1.9492-6.9609 8.7383-0.49609 3.0508-0.42187 6.875 0.21875 10.758 0.46875 2.8555 2.0898 10.496 6.2188 14.25-7.7812 25.09-23.395 41.266-34.043 49.844 0.12109-3.2227-0.16016-6.1367-0.6875-8.5898-1.9727-9.1211-7.3398-15.973-12.754-20.246 8.1211-12.773 6.5195-24.941 4.625-31.488-2.5742-8.8828-8.3164-16.543-14.945-20.312-0.55078-15.562-7.8594-23.074-14.152-26.668-7.2734-4.1562-15.793-4.4844-21.781-3.1016-8.3125-11.402-18.406-14.613-25.73-15.211-7.8633-0.64453-15.109 1.5234-19.891 4.5625-11.133-6.918-21.695-9.2852-31.484-7.0586-7.9727 1.8164-13.547 6.3359-17.035 10.078-3.5742-2.5898-7.7812-3.8789-12.387-3.6055-4.8828 0.29688-9.7891 2.3672-13.355 5.3125-7.7227-6.8203-17.297-9.7188-27.102-8.0312-5.8125 1.0039-10.965 3.5859-14.324 6.9688-16.758-7.3555-27.883-0.55859-33.234 4.4727-4.2773 4.0234-7.4688 9.3906-8.8711 14.262-10.898-1.2188-17.25 3.0547-20.785 7.2578-5.4727 6.5195-6.6133 15.832-6.0859 21.988-9.0742 5.6836-14.906 12.883-17.367 21.438-3.1406 10.914 0.09375 21.254 2.9531 27.496-0.47656 0.48828-0.91016 0.97656-1.3516 1.4648-14.461 5.3633-22.699 12.191-23.48 12.859-2.3516 2.0078-2.6289 5.5469-0.62109 7.8945 1.1055 1.3008 2.6797 1.9648 4.2617 1.9648 1.2891 0 2.582-0.44141 3.6328-1.3438 0.09375-0.078125 2.2578-1.8672 6.2773-4.2383-2.8047 9.8906-0.625 18.199 1.0547 22.445 1.0469 2.6562 2.4727 5.0586 4.0352 7.3047-10.059-5.3984-23.828-14.148-32.75-25.336 0.66406-1.2617 1.1992-2.8516 1.4414-4.9805 0.34375-3.0703 0.078126-6.8867-0.75-10.742-0.80078-3.7148-4.0273-15.828-11.926-15.828-0.39844 0-1.0977 0.074219-1.4844 0.16016-5.5977 1.2031-7.0781 7.5312-6.5586 14.371-0.32422-0.17969-0.63281-0.37109-0.96484-0.54297-4.6133-2.3828-9.2812-3.75-12.801-3.75-4.9414 0-7.0195 2.5898-7.8242 4.1406-2.7773 5.375 1.6719 11.91 11.613 17.051 0.52344 0.27344 1.0508 0.48047 1.5742 0.72656-2.8477 2.5547-5.9805 6.1133-6.6133 9.9062-0.34766 2.0586 0.085937 4.0664 1.207 5.6367 0.83203 1.168 2.793 3.1289 6.5859 3.1289h0.003906c5.375 0 11.504-3.9453 13.887-5.6406 2.0742-1.4727 3.9297-3.0977 5.5-4.7344 15.258 17.773 39.613 29.168 46.527 32.152-3.5625 9.707-2.5234 17.391-0.49219 22.637 3.4219 8.8281 10.734 14.617 18.082 17.824-6.5234 12.891-5.1406 26.648 4.1406 37.895 6.0977 7.3828 14.195 11.801 21.461 12.211 1.0156 5.8477 4.7617 10.621 10.668 13.219 6.1602 2.7188 13.137 2.2305 18.074-0.85938 7.1562 3.9375 13.57 5.2109 18.871 5.2109 3.0312 0 5.6953-0.41406 7.9297-0.98438 7.1094-1.8203 13.355-6.0664 17.691-11.918 0.87109 0.20703 1.7188 0.24219 2.5781 0.35156-1.418 10.363-5.1836 25.871-15.234 38.961-0.95312 1.2422-1.3438 2.8281-1.0781 4.3711 0.26953 1.543 1.1719 2.9023 2.4844 3.75 5.9492 3.8281 15.727 9.7773 15.727 9.7773l5.8203-9.5703c-0.007812-0.003907-5.3867-3.2773-10.551-6.5039 9.875-15.262 13.184-32.023 14.297-42.352 1.3438-0.61328 2.6484-1.3438 3.8945-2.2539 4.8984-3.5781 8.3047-9.2031 9.4219-15.117 5.1016-0.35547 8.6914-2.1602 11.238-4.2891 2.8711 1.9023 6.0273 3.0938 9.1602 3.5039 1.668 4.4727 5.4961 8.3516 10.75 10.609 4.7852 2.0508 9.6953 2.3633 13.832 1.0273 0.66016 0.87891 1.4531 1.6562 2.2266 2.457-1.1797 10.012-4.707 27.492-15.465 41.496-0.95703 1.2422-1.3438 2.8281-1.0781 4.375 0.26953 1.543 1.1719 2.9023 2.4883 3.7461 5.9492 3.8281 15.727 9.7773 15.727 9.7773l5.8203-9.5703c-0.003906-0.003907-5.3867-3.2812-10.555-6.5078 7.8438-12.152 11.605-25.516 13.402-36.547 1.3281 0.50781 2.6758 0.98828 4.1016 1.3281 2.5312 0.60156 5.0977 0.89844 7.6445 0.89844 6.6992 0 13.258-2.0352 18.691-5.875 22.48 4.5508 33.938-6.1562 38.852-13.152 7.0391-10.047 8.832-23.816 6.5664-33.227 9.9805-4.4336 17.172-12.883 20.539-24.312 3.9258-13.316 2.0898-29.617-4.0469-39.652 2.4727-3.3281 4.3438-6.5117 5.8281-9.5742 6.5508-3.7578 35.543-22.184 48.414-60.793 2.0078 0.92969 4.3203 1.7461 6.9453 2.3945 3.0586 0.75781 6.0938 1.1602 8.7734 1.1602 8.3789 0 10.613-3.9609 11.207-6.3242 1.4141-5.7461-4.0234-9.9453-10.699-12.453zm-77.164 122.07c-2.0195 6.8398-6.875 15.641-18.551 18.727-1.7539 0.46094-3.1719 1.7461-3.8125 3.4336-0.64062 1.6953-0.42188 3.5938 0.58984 5.0977 2.5469 3.8008 3.0625 17.281-3.7695 27.027-6.1289 8.7461-16.117 11.469-29.68 8.1055-1.75-0.42578-3.6133 0.011718-4.9883 1.1797-5.0469 4.3242-12.055 5.9648-18.77 4.375-5.7031-1.3516-10.102-4.8047-12.059-9.4609-0.73438-1.75-2.3008-3.0078-4.168-3.3477-1.8828-0.33203-3.7773 0.30078-5.0742 1.6797-1.2969 1.3633-4.3789 1.4219-7.3555 0.16016-2.4492-1.0547-5.0312-3.2539-4.8984-5.5898 0.097656-1.6914-0.57422-3.332-1.8281-4.4688-1.2539-1.1328-2.9375-1.6367-4.625-1.3828-4.0156 0.61719-9.4023-1.6719-11.637-8.2188-1-2.9258-4.1797-4.5078-7.1094-3.4883-2.9258 1-4.4883 4.1836-3.4883 7.1094 0.48047 1.4062 1.0781 2.6914 1.7305 3.9062-1.4648 1.0156-3.9258 1.832-8.2812 1.2734-1.6914-0.19531-3.4023 0.35156-4.625 1.5547-1.2266 1.1914-1.8359 2.8828-1.6562 4.5898 0.42188 4.0195-1.7539 8.7539-5.1719 11.25-3.1992 2.3398-7.1641 2.5742-11.465 0.68359-2.6797-1.1641-5.8203-0.082031-7.1992 2.5117-2.6914 5.0859-7.6055 8.9688-13.141 10.379-6.6211 1.6953-14.07-0.023438-21.551-4.9531-2.5-1.6406-5.8359-1.0391-7.6016 1.3672-1.3398 1.8281-5.293 2.2109-8.4414 0.82422-2.3945-1.0547-5.0391-3.3633-4.0391-8.3906 0.41406-2.0781-0.37891-4.2109-2.0508-5.5117-1.6641-1.2891-3.9297-1.543-5.8398-0.64063-2.8945 1.3789-10.414-0.91797-16.066-7.7695-3.5352-4.2812-10.594-15.832 0.20703-30.543 1.1211-1.5273 1.3945-3.5156 0.72266-5.2891-0.66797-1.7773-2.1875-3.0898-4.0391-3.4961-6.4219-1.4102-14.344-5.6445-17.309-13.305-2.6836-6.9219-0.58984-15.559 6.0664-24.965 1.2227-1.7266 1.3633-3.9961 0.37109-5.8633-0.99219-1.8633-2.7578-3.1562-5.0703-2.9688-2.3945-0.011719-8.5117-4.1172-11.602-11.938-2.0625-5.2188-3.6914-14.863 4.8359-25.691 17.844-5.9609 45.547-9.0938 80.457 6.2578-0.011719 0.35938-0.054687 0.71484-0.054687 1.082 0 20.859 16.969 37.832 37.832 37.832 20.246 0 36.773-16 37.73-36.016 4.2109-0.89063 8.9648-0.94141 13.262-0.13672 0.88672 20.078 17.449 36.152 37.746 36.152 20.852 0 37.82-16.969 37.82-37.832 0-20.859-16.969-37.828-37.82-37.828-17.57 0-32.336 12.055-36.574 28.312-5.082-0.83594-10.539-0.8125-15.574 0.085938-4.207-16.301-18.992-28.402-36.59-28.402-16.512 0-30.547 10.645-35.695 25.418-31.309-13.215-57.203-12.871-76.23-8.4922-2.2031-4.0625-6.1211-13.035-3.5156-22.082 1.9023-6.6133 7.1055-12.246 15.469-16.73 2.625-1.4062 3.8047-4.3359 2.5391-7.0273-0.65625-2.1797-0.76953-11.461 3.75-16.102 3.0664-3.1484 8.2188-3.7617 15.309-1.8359 2.125 0.56641 4.3789-0.13672 5.7812-1.8242 1.2461-1.5 1.6133-3.5234 1.0078-5.3438 0.078124-2.0625 2.7109-9.2773 8.9844-13.207 5.9453-3.7305 13.289-3.1914 21.816 1.5977 1.4492 0.81641 3.1758 0.94141 4.7227 0.35547 1.5508-0.58984 2.7617-1.8281 3.3047-3.3945 0.37109-1.0547 3.5195-3.9727 9.1289-4.9414 4.5742-0.80078 13.426-0.67578 21.215 9 1.293 1.6055 3.3594 2.3945 5.3906 2.0156 2.0312-0.38281 3.6758-1.8281 4.293-3.7969 0.47656-1.1055 4.2422-4.332 8.8086-4.3789h0.09375c2.2422 0 4.1328 0.92578 5.7812 2.6016-0.65234 0.8125-1.1641 1.7461-1.2734 2.8555-0.29687 3.0781 1.9609 5.8164 5.0391 6.1133 0.058594 0.003907 5.8789 0.72266 8.5195 4.6016 1.0352 1.5117 1.4336 3.4961 1.3438 5.8203-1.8633 0.53516-3.4414 1.9375-3.9375 3.957-0.74219 3.0039 1.0938 6.0391 4.0977 6.7773 0.054688 0.011719 5.6172 1.5586 7.8711 6.0039 1.582 3.125 1.3086 7.3086-0.81641 12.434-1.1797 2.8555 0.17578 6.1328 3.0312 7.3125 0.69922 0.28906 1.4258 0.42969 2.1445 0.42969 2.1914 0 4.2812-1.3047 5.1719-3.4609 3.4297-8.2773 3.582-15.602 0.46094-21.77-1.8594-3.6758-4.5508-6.2344-7.168-8.0469 0.94141-6.1016 0.023437-11.418-2.9414-15.766-2.2969-3.3711-5.3438-5.5039-8.2266-6.9102-0.058594-0.17578-0.042968-0.35547-0.12109-0.52734-0.20312-0.44141-0.44141-0.82812-0.66016-1.2539 2.1758-2.6055 6.3203-6.5586 12.469-7.9141 7.5859-1.6875 16.32 0.92188 25.988 7.6914 2.3828 1.668 5.6172 1.2344 7.4922-0.96875 1.3672-1.6211 7.1523-4.5273 14.359-3.9531 7.8516 0.64453 14.629 5.375 19.594 13.688 0.76953 1.2891 2.0508 2.207 3.5117 2.5586 1.4492 0.34375 3.0195 0.089844 4.2969-0.70703 1.4648-0.91797 9.1836-2.2812 15.516 1.3633 5.9492 3.4219 8.8008 10.27 8.4727 20.348-0.082031 2.5117 1.5156 4.7695 3.9102 5.5234 3.9805 1.2539 9.1914 6.625 11.461 14.469 1.5273 5.2656 2.75 15.684-6.1836 26.25-1.1211 1.3242-1.5625 3.0938-1.1992 4.7891 0.35938 1.6953 1.4922 3.1289 3.0586 3.8789 4.8789 2.3398 10.566 8.2188 12.273 16.074 1.9102 8.8242-1.5195 18.793-9.9297 28.836-1.8008 2.1484-1.7344 5.2969 0.15234 7.3672 5.0586 5.5586 8.1367 20.414 4.4727 32.844zm-137.59-64.715c0 14.684-11.945 26.629-26.625 26.629-14.684 0-26.629-11.945-26.629-26.629 0-14.684 11.945-26.629 26.629-26.629s26.625 11.945 26.625 26.629zm62.117-26.629c14.68 0 26.621 11.945 26.621 26.629 0 14.684-11.945 26.629-26.621 26.629-14.684 0-26.633-11.945-26.633-26.629 0-14.684 11.949-26.629 26.633-26.629z"/>
  <path d="m449.97 292.78c-1.1484-2.2461-2.7656-3.7891-4.8438-4.5977-4.8438-1.9023-9.9023 1.2344-10.461 1.5977-1.2891 0.84375-1.6562 2.5664-0.82422 3.8594 0.83203 1.2891 2.5469 1.668 3.8672 0.84766 0.80859-0.51562 3.5586-1.8086 5.3984-1.0898 1.1914 0.47656 2.0898 1.8477 2.6641 4.0781 0.24219 0.92969 0.93359 1.6719 1.8438 1.9688 0.91797 0.30078 1.9141 0.11328 2.6523-0.50391 2.7773-2.293 5.0195-0.26953 5.8672 0.71094 1.793 2.0781 3.0586 6.4492-0.81641 9.9492-1.1484 1.0391-1.2344 2.8125-0.20312 3.9531 0.55078 0.61328 1.3125 0.92578 2.0781 0.92578 0.67188 0 1.3398-0.24219 1.875-0.72266 6.0703-5.4844 5.1992-13.246 1.3008-17.762-2.8555-3.3086-6.7695-4.4258-10.398-3.2148z"/>
  <path d="m456.88 191.08c-0.38672 1.5 0.51562 3.0234 2.0117 3.4141 0.23438 0.0625 0.46875 0.089844 0.69922 0.089844 1.2461 0 2.3828-0.83594 2.7109-2.0977 1.75-6.7617-0.58594-12.527-6.4023-15.828-2.6641-1.5078-6.168-2.3828-8.9375-2.1133-1.9961-4.0859-4.7812-6.8125-8.3008-8.1289-6.3594-2.3789-12.582 0.98828-12.84 1.1328-1.3516 0.74609-1.8359 2.4375-1.0977 3.7891 0.72656 1.3477 2.4336 1.8516 3.7891 1.1211 0.042969-0.023438 4.2891-2.2734 8.2305-0.78125 2.5742 0.98047 4.6055 3.4336 6.0195 7.3008 0.33203 0.89844 0.95313 1.6797 1.8906 1.8828 0.94531 0.19531 1.7656 0.023438 2.4375-0.66016 0.84766-0.35156 4.7539-0.046875 7.625 2.4414 2.3633 2.0391 3.0898 4.8789 2.1641 8.4375z"/>
  <path d="m280.02 165.41c-3.0156 3.0273-4.6719 6.9922-4.7539 10.547-5.8203-1.457-10.535-0.86328-14.062 1.7891-7.1406 5.3633-6.0273 16.938-5.9766 17.426 0.15234 1.4375 1.3633 2.5078 2.7812 2.5078 0.09375 0 0.19141-0.003906 0.28906-0.011719 1.5352-0.16016 2.6562-1.5312 2.5-3.0664-0.24609-2.4727-0.050781-9.5195 3.7773-12.383 2.8398-2.1289 7.4688-1.9102 13.75 0.64453 1.1992 0.49219 2.5898 0.082031 3.3398-0.97656 0.75-1.0625 0.67188-2.5-0.1875-3.4727-1.3789-1.5586-0.49219-6.0391 2.5078-9.0508 4.1328-4.1289 9.8711-3.5391 15.754 1.625 1.168 1.0195 2.9336 0.90625 3.9492-0.25391 1.0234-1.1602 0.90625-2.9297-0.25391-3.9492-9.7344-8.5625-18.48-6.3242-23.414-1.375z"/>
  <path d="m254.33 273.27c1.418-1.1484 4.6289-2.8906 7.7266-2.0742 2.6562 0.6875 4.8516 3.1484 6.5234 7.3125 0.4375 1.0938 1.4883 1.7539 2.5977 1.7539 0.34766 0 0.69922-0.066407 1.043-0.20312 1.4375-0.57422 2.1328-2.2031 1.5547-3.6406-2.3672-5.9023-5.8359-9.4844-10.312-10.645-3.3633-0.87109-6.7227-0.17188-9.4297 1.1172-1.8711-4.3281-4.5391-7.1875-7.9609-8.5273-5.918-2.3047-11.594 1.0352-11.828 1.1797-1.3242 0.79688-1.7539 2.5156-0.96094 3.8438 0.79297 1.3242 2.5117 1.7539 3.8438 0.96094 0.035156-0.023437 3.582-2.0664 6.9062-0.76562 2.5586 1 4.5273 3.793 5.8477 8.3008 0.26562 0.89844 0.96094 1.6094 1.8555 1.8867 0.89453 0.27344 1.8672 0.09375 2.5938-0.5z"/>
  <path d="m297.03 316.55c-1.4062-0.64453-3.0664-0.03125-3.7148 1.3672-0.03125 0.066407-3.2109 6.6562-8.2422 7.4141-3.1641 0.49219-6.6914-1.4258-10.504-5.6602-1.043-1.1523-2.8125-1.2461-3.957-0.20312-1.1484 1.0352-1.2383 2.8047-0.20703 3.9531 0.38672 0.42578 0.77344 0.73438 1.1602 1.125-1.3086 3.4609-3.1094 5.6758-5.4258 6.4258-4.0312 1.2969-9.3359-1.6992-11.023-2.9688-1.2344-0.94141-2.9922-0.68359-3.9219 0.54688-0.92969 1.2305-0.69141 2.9805 0.53516 3.9141 0.28516 0.21484 5.918 4.4297 12.227 4.4297 1.2812 0 2.5859-0.16797 3.8828-0.58984 3.5508-1.1367 6.2852-3.8711 8.2227-8.0234 2.6758 1.7461 5.3555 2.7227 8.0195 2.7227 0.60938 0 1.2188-0.050781 1.8281-0.13672 8.0586-1.2188 12.309-10.223 12.484-10.605 0.65234-1.3984 0.039063-3.0586-1.3633-3.7109z"/>
  <path d="m399.59 250.08c2.582 1.6641 6.0391 0.90625 7.7227-1.6641 0.03125-0.042969 3.0117-4.4297 7.0938-4.7812 3.7227-0.25 7.5234 2.8555 10.062 5.5742 1.1055 1.1836 2.5977 1.7812 4.0977 1.7812 1.3672 0 2.7383-0.49609 3.8242-1.5078 2.2578-2.1094 2.3789-5.6523 0.27344-7.9141-6.2109-6.6523-12.754-9.7188-19.359-9.0781-9.4883 0.89453-14.852 8.9922-15.434 9.9102-1.6445 2.6016-0.86719 6.0156 1.7188 7.6797z"/>
  <path d="m323.5 232.49c-9.4844 0.89453-14.852 8.9922-15.434 9.9102-1.6406 2.6016-0.86328 6.0156 1.7188 7.6797 2.5859 1.6602 6.043 0.90625 7.7266-1.6641 0.03125-0.042969 3.0117-4.4297 7.0898-4.7812 3.6953-0.29688 7.5273 2.8555 10.066 5.5742 1.1016 1.1836 2.5977 1.7812 4.0938 1.7812 1.3711 0 2.7422-0.49609 3.8203-1.5078 2.2617-2.1094 2.3828-5.6523 0.27344-7.9141-6.2031-6.6484-12.699-9.6797-19.355-9.0781z"/>
  <path d="m403.2 296.83c-4.8711-8.8555-11.18-10.715-15.613-10.715-2.9922 0-6.1914 0.84375-9.5 2.5-4.5156 2.2578-11.539 1.2617-20.77-2.9023-2.3086-1.043-4.6719-1.5703-7.0234-1.5703-8.6641 0-13.691 6.918-14.461 8.0625-6.9062 11.801-4.8125 20.465-1.8359 25.648 1.1445 1.9961 2.6367 3.6914 4.2656 5.2539 0.19922 0.19141 0.375 0.39844 0.59766 0.55859 7.8594 7.1211 20.004 9.8828 29.422 9.8828 16.117 0 27.262-4.3242 33.117-12.852 4.4297-6.457 5.2227-15.121 2.1211-23.176-0.089843-0.23828-0.19922-0.46484-0.32031-0.69141zm-57.922 1.3789c0.019531-0.027344 2.1562-2.8672 5.0156-2.8672 0.76172 0 1.5508 0.1875 2.4102 0.57422 12.719 5.7461 22.652 6.5898 30.402 2.7109 1.7383-0.87109 3.25-1.3125 4.4844-1.3125 0.83203 0 2.9922 0 5.6094 4.5703 0.73828 2.082 2.2305 7.707-1.0352 12.465-0.39453 0.57422-0.86328 1.1055-1.3711 1.6172-17.348-14.094-36.473-8.8828-47.164-3.9219-2.043-3.7695-1.4375-8.5273 1.6484-13.836zm8.957 21.684c7.2031-2.2812 16.012-3.0117 24.582 1.5469-3.1016 0.58203-6.5898 0.91016-10.535 0.91016-4.5586 0-9.6172-0.83984-14.047-2.457z"/>
  <path d="m553.71 273.03c0 4.3477-3.5234 7.8711-7.8711 7.8711s-7.875-3.5234-7.875-7.8711 3.5273-7.8711 7.875-7.8711 7.8711 3.5234 7.8711 7.8711"/>
  <path d="m525.86 309.54c0 6.3008-9.4531 6.3008-9.4531 0 0-6.3047 9.4531-6.3047 9.4531 0"/>
  <path d="m195.59 140.82c0 5.7461-4.6562 10.402-10.402 10.402s-10.402-4.6562-10.402-10.402c0-5.7422 4.6562-10.402 10.402-10.402s10.402 4.6602 10.402 10.402"/>
  <use x="70" y="644" xlink:href="#u"/>
  <use x="90.550781" y="644" xlink:href="#c"/>
  <use x="104.359375" y="644" xlink:href="#a"/>
  <use x="123.347656" y="644" xlink:href="#g"/>
  <use x="142.242188" y="644" xlink:href="#b"/>
  <use x="155.628906" y="644" xlink:href="#a"/>
  <use x="174.617188" y="644" xlink:href="#k"/>
  <use x="204.410156" y="644" xlink:href="#j"/>
  <use x="224.453125" y="644" xlink:href="#f"/>
  <use x="252.453125" y="644" xlink:href="#i"/>
  <use x="274.121094" y="644" xlink:href="#c"/>
  <use x="287.929688" y="644" xlink:href="#h"/>
  <use x="297.527344" y="644" xlink:href="#f"/>
  <use x="315.78125" y="644" xlink:href="#g"/>
  <use x="334.671875" y="644" xlink:href="#e"/>
  <use x="354.609375" y="644" xlink:href="#b"/>
  <use x="367.992188" y="644" xlink:href="#d"/>
  <use x="396.976562" y="644" xlink:href="#t"/>
  <use x="420.21875" y="644" xlink:href="#a"/>
  <use x="439.210937" y="644" xlink:href="#e"/>
  <use x="459.140625" y="644" xlink:href="#h"/>
  <use x="70" y="672" xlink:href="#s"/>
  <use x="82.183594" y="672" xlink:href="#c"/>
  <use x="95.992188" y="672" xlink:href="#d"/>
  <use x="115.226562" y="672" xlink:href="#r"/>
  <use x="154.152344" y="672" xlink:href="#b"/>
  <use x="167.535156" y="672" xlink:href="#q"/>
  <use x="187.46875" y="672" xlink:href="#a"/>
  <use x="216.207031" y="672" xlink:href="#p"/>
  <use x="239.640625" y="672" xlink:href="#d"/>
  <use x="258.878906" y="672" xlink:href="#o"/>
  <use x="278.8125" y="672" xlink:href="#e"/>
  <use x="308.492188" y="672" xlink:href="#n"/>
  <use x="329.015625" y="672" xlink:href="#c"/>
  <use x="342.820312" y="672" xlink:href="#d"/>
  <use x="362.058594" y="672" xlink:href="#m"/>
  <use x="371.65625" y="672" xlink:href="#a"/>
  <use x="390.648438" y="672" xlink:href="#l"/>
  <use x="407.242188" y="672" xlink:href="#b"/>
 </g>
</svg>
